{"title":"Badshah - DJ Waley Babu - Feat Aastha Gill - Party Anthem 2015","uid":12308992,"size":22296870,"categoryP":"video","categoryS":"music_videos","magnet":"?xt=urn:btih:ceb8de018188e727b3eab38e7b001559c022ebcf&amp;dn=Badshah+-+DJ+Waley+Babu+-+Feat+Aastha+Gill+-+Party+Anthem+2015&amp;tr=udp%3A%2F%2Ftracker.openbittorrent.com%3A80&amp;tr=udp%3A%2F%2Fopen.demonii.com%3A1337&amp;tr=udp%3A%2F%2Ftracker.coppersurfer.tk%3A6969&amp;tr=udp%3A%2F%2Fexodus.desync.com%3A6969","seeders":1,"leechers":0,"uploader":"Aainul","files":5,"time":1440845253,"description":"Seeding From High Speed Seedbox\n\nBadshah - DJ Waley Babu - Feat Aastha Gill - Party Anthem Of 2015 - Full Song 720p - Team truHD H.264\n\nSource: WEB-DL\n\nSource File Info: \n\nGeneral\nFormat : MPEG-4\nFormat profile : Base Media / Version 2\nCodec ID : mp42\nFile size : 34.1 MiB\nDuration : 2mn 35s\nOverall bit rate mode : Variable\nOverall bit rate : 1 838 Kbps\nEncoded date : UTC 2015-07-22 03:01:15\nTagged date : UTC 2015-07-22 03:01:15\n\n\nVideo\nID : 1\nFormat : AVC\nFormat/Info : Advanced Video Codec\nFormat profile : &lt;a class=&quot;__cf_email__&quot; href=&quot;/cdn-cgi/l/email-protection&quot; data-cfemail=&quot;723f131b1c323e415c43&quot;&gt;[email&amp;#160;protected]&lt;/a&gt;&lt;script data-cfhash='f9e31' type=&quot;text/javascript&quot;&gt;\n/* &lt;![CDATA[ */!function(){try{var t=&quot;currentScript&quot;in document?document.currentScript:function(){for(var t=document.getElementsByTagName(&quot;script&quot;),e=t.length;e--;)if(t[e].getAttribute(&quot;data-cfhash&quot;))return t[e]}();if(t&amp;&amp;t.previousSibling){var e,r,n,i,c=t.previousSibling,a=c.getAttribute(&quot;data-cfemail&quot;);if(a){for(e=&quot;&quot;,r=parseInt(a.substr(0,2),16),n=2;a.length-n;n+=2)i=parseInt(a.substr(n,2),16)^r,e+=String.fromCharCode(i);e=document.createTextNode(e),c.parentNode.replaceChild(e,c)}t.parentNode.removeChild(t);}}catch(u){}}()/* ]]&gt; */&lt;/script&gt;\nFormat settings, CABAC : Yes\nFormat settings, ReFrames : 3 frames\nCodec ID : avc1\nCodec ID/Info : Advanced Video Coding\nDuration : 2mn 35s\nBit rate : 1 710 Kbps\nWidth : 1 280 pixels\nHeight : 720 pixels\nDisplay aspect ratio : 16:9\nFrame rate mode : Constant\nFrame rate : 25.000 fps\nColor space : YUV\nChroma subsampling : 4:2:0\nBit depth : 8 bits\nScan type : Progressive\nBits/(Pixel*Frame) : 0.074\nStream size : 31.7 MiB (93%)\nTitle : ISO Media file produced by Google Inc.\nEncoded date : UTC 2015-07-22 03:01:15\nTagged date : UTC 2015-07-22 03:01:15\n\nAudio\nID : 2\nFormat : AAC\nFormat/Info : Advanced Audio Codec\nFormat profile : LC\nCodec ID : 40\nDuration : 2mn 35s\nBit rate mode : Variable\nBit rate : 126 Kbps\nChannel(s) : 2 channels\nChannel positions : Front: L R\nSampling rate : 44.1 KHz\nCompression mode : Lossy\nStream size : 2.33 MiB (7%)\nTitle : ISO Media file produced by Google Inc.\nEncoded date : UTC 2015-07-22 03:01:15\nTagged date : UTC 2015-07-22 03:01:15\n\n\nEncoder: truHD HEVC Encoding Team\n\nEncoded File Info:\n\nGeneral\nFormat : MPEG-4\nFormat profile : Base Media / Version 2\nCodec ID : mp42\nFile size : 21.0 MiB\nDuration : 2mn 35s\nOverall bit rate mode : Variable\nOverall bit rate : 1 135 Kbps\nEncoded date : UTC 2036-02-06 06:28:16\nTagged date : UTC 2036-02-06 06:28:16\nWriting application : HandBrake 0.10.2 2015060900\n\nVideo\nID : 1\nFormat : AVC\nFormat/Info : Advanced Video Codec\nFormat profile : &lt;a class=&quot;__cf_email__&quot; href=&quot;/cdn-cgi/l/email-protection&quot; data-cfemail=&quot;b0f8d9d7d8f0fc839e81&quot;&gt;[email&amp;#160;protected]&lt;/a&gt;&lt;script data-cfhash='f9e31' type=&quot;text/javascript&quot;&gt;\n/* &lt;![CDATA[ */!function(){try{var t=&quot;currentScript&quot;in document?document.currentScript:function(){for(var t=document.getElementsByTagName(&quot;script&quot;),e=t.length;e--;)if(t[e].getAttribute(&quot;data-cfhash&quot;))return t[e]}();if(t&amp;&amp;t.previousSibling){var e,r,n,i,c=t.previousSibling,a=c.getAttribute(&quot;data-cfemail&quot;);if(a){for(e=&quot;&quot;,r=parseInt(a.substr(0,2),16),n=2;a.length-n;n+=2)i=parseInt(a.substr(n,2),16)^r,e+=String.fromCharCode(i);e=document.createTextNode(e),c.parentNode.replaceChild(e,c)}t.parentNode.removeChild(t);}}catch(u){}}()/* ]]&gt; */&lt;/script&gt;\nFormat settings, CABAC : Yes\nFormat settings, ReFrames : 5 frames\nCodec ID : avc1\nCodec ID/Info : Advanced Video Coding\nDuration : 2mn 35s\nBit rate : 969 Kbps\nWidth : 1 280 pixels\nHeight : 540 pixels\nDisplay aspect ratio : 2.40:1\nFrame rate mode : Constant\nFrame rate : 25.000 fps\nColor space : YUV\nChroma subsampling : 4:2:0\nBit depth : 8 bits\nScan type : Progressive\nBits/(Pixel*Frame) : 0.056\nStream size : 18.0 MiB (85%)\nWriting library : x264 core 142 r2479 dd79a61\nEncoding settings : cabac=1 / ref=5 / deblock=1:0:0 / analyse=0x3:0x113 / me=umh / subme=8 / psy=1 / psy_rd=1.00:0.00 / mixed_ref=1 / me_range=16 / chroma_me=1 / trellis=1 / 8x8dct=1 / cqm=0 / deadzone=21,11 / fast_pskip=1 / chroma_qp_offset=-2 / threads=3 / lookahead_threads=1 / sliced_threads=0 / nr=0 / decimate=1 / interlaced=0 / bluray_compat=0 / constrained_intra=0 / bframes=3 / b_pyramid=2 / b_adapt=2 / b_bias=0 / direct=3 / weightb=1 / open_gop=0 / weightp=2 / keyint=250 / keyint_min=25 / scenecut=40 / intra_refresh=0 / rc_lookahead=50 / rc=crf / mbtree=1 / crf=27.0 / qcomp=0.60 / qpmin=0 / qpmax=69 / qpstep=4 / ip_ratio=1.40 / aq=1:1.00\nEncoded date : UTC 2036-02-06 06:28:16\nTagged date : UTC 2036-02-06 06:28:16\n\n\nAudio\nID : 2\nFormat : AAC\nFormat/Info : Advanced Audio Codec\nFormat profile : LC\nCodec ID : 40\nDuration : 2mn 35s\nBit rate mode : Variable\nBit rate : 159 Kbps\nChannel(s) : 2 channels\nChannel positions : Front: L R\nSampling rate : 44.1 KHz\nCompression mode : Lossy\nStream size : 2.96 MiB (14%)\nTitle : truHD HEVC\nEncoded date : UTC 2036-02-06 06:28:16\nTagged date : UTC 2036-02-06 06:28:16\n\n\nScreenShots:\n &lt;a href=&quot;\nhttp://i1.someimage.com/jtfRjr0.jpg&quot; rel=&quot;nofollow&quot; target=&quot;_NEW&quot;&gt;\nhttp://i1.someimage.com/jtfRjr0.jpg&lt;/a&gt;\n\n\nLike Us On FB And Request Accepted\n\nKickAssTorrents:  &lt;a href=&quot;\nhttps://kat.cr/user/Aainul/&quot; rel=&quot;nofollow&quot; target=&quot;_NEW&quot;&gt;\nhttps://kat.cr/user/Aainul/&lt;/a&gt;\nGloTorrents:  &lt;a href=&quot;\nhttps://glodls.to/user/Aainul&quot; rel=&quot;nofollow&quot; target=&quot;_NEW&quot;&gt;\nhttps://glodls.to/user/Aainul&lt;/a&gt;\nThePirateBay:  &lt;a href=&quot;\nhttps://thepiratebay.vg/user/Aainul/&quot; rel=&quot;nofollow&quot; target=&quot;_NEW&quot;&gt;\nhttps://thepiratebay.vg/user/Aainul/&lt;/a&gt;\n1337x Torrents:  &lt;a href=&quot;\nhttp://1337.to/user/Aainul/&quot; rel=&quot;nofollow&quot; target=&quot;_NEW&quot;&gt;\nhttp://1337.to/user/Aainul/&lt;/a&gt;\n\n\nNote: All Videos Uploaded By Me Are For Review Purpose. If You Like IT, Google IT And Buy IT - Thanks\n\n\nKing Regards\ntruHD HEVC Team\n\nShare Among Friends And Relatives","torrent":{"xt":"urn:btih:ceb8de018188e727b3eab38e7b001559c022ebcf","amp;dn":"Badshah+-+DJ+Waley+Babu+-+Feat+Aastha+Gill+-+Party+Anthem+2015","amp;tr":["udp%3A%2F%2Ftracker.openbittorrent.com%3A80","udp%3A%2F%2Fopen.demonii.com%3A1337","udp%3A%2F%2Ftracker.coppersurfer.tk%3A6969","udp%3A%2F%2Fexodus.desync.com%3A6969"],"infoHash":"ceb8de018188e727b3eab38e7b001559c022ebcf","infoHashBuffer":{"type":"Buffer","data":[206,184,222,1,129,136,231,39,179,234,179,142,123,0,21,89,192,34,235,207]},"announce":[],"urlList":[]}}